<?xml version="1.0" encoding="UTF-8"?>
<svg width="130px" height="130px" viewBox="0 0 130 130" version="1.1" xmlns="http://www.w3.org/2000/svg" xmlns:xlink="http://www.w3.org/1999/xlink">
    <!-- Generator: Sketch 50 (54983) - http://www.bohemiancoding.com/sketch -->
    <title>Group</title>
    <desc>Created with Sketch.</desc>
    <defs></defs>
    <g id="Page-1" stroke="none" stroke-width="1" fill="none" fill-rule="evenodd">
        <g id="Logo" transform="translate(-35.000000, -35.000000)">
            <g id="Group" transform="translate(35.000000, 35.000000)">
                <path d="M62.9634681,129.968703 C31.2082704,128.99139 5.18758118,105.237461 0.688374941,74.4938892 C5.49707764,72.8765213 10.6461776,72 16,72 C42.509668,72 64,93.490332 64,120 C64,123.418117 63.6427202,126.752787 62.9634681,129.968703 Z" id="Combined-Shape" fill="#E8FFF0"></path>
                <path d="M70.2183991,0.206429647 C101.137772,2.66260588 125.9637,26.755239 129.553605,57.3417498 C125.552108,58.4231018 121.343425,59 117,59 C90.490332,59 69,37.509668 69,11 C69,7.28870241 69.4211978,3.67578083 70.2183991,0.206429647 Z" id="Combined-Shape" fill="#FFF4F4"></path>
                <text id="PREP" font-family="HelveticaNeue-Bold, Helvetica Neue" font-size="16" font-weight="bold" letter-spacing="1" fill="#000000">
                    <tspan x="41" y="69">PREP</tspan>
                </text>
            </g>
        </g>
    </g>
</svg>